#!OML:ASF H:\Male1\Project 1\Capture day 1\Session 1\Male1.ASF
:FULLY-SPECIFIED
:DEGREES
252
root -9.89755 15.1947 6.71957 184.192 23.3407 -176.517
lowerback 8.2449 -0.183439 -6.68568
upperback 6.77021 0.00215141 -1.37781
thorax 2.46942 0.04065 2.32651
lowerneck -7.11398 -7.43865 -3.20758
upperneck 13.8576 -10.7545 9.34502
head 6.05512 -4.61412 2.64768
rclavicle -4.49253e-014 4.77083e-015
rhumerus -35.2026 6.76625 -90.5895
rradius 43.1148
rwrist -22.7638
rhand -20.8253 6.01477
rfingers 7.12502
rthumb 5.543 -23.8927
lclavicle -4.49253e-014 4.77083e-015
lhumerus -28.9612 -8.64624 87.5866
lradius 52.154
lwrist 16.0188
lhand -32.7981 18.3582
lfingers 7.12502
lthumb -6.01926 48.2527
rfemur -22.0522 -4.93161 27.419
rtibia 34.4529
rfoot -39.3348 -32.6564
rtoes 7.55551
lfemur -1.36969 2.57384 -13.443
ltibia 28.1879
lfoot -33.7747 27.6202
ltoes 1.59567
253
root -9.77687 15.1716 6.68536 184.195 25.5829 -177.107
lowerback 7.785 -0.158328 -6.70743
upperback 6.51519 0.0077339 -1.45011
thorax 2.45119 0.0277671 2.26283
lowerneck -7.50511 -7.04383 -2.77638
upperneck 14.3229 -10.1851 8.52805
head 6.16454 -4.34985 2.35736
rclavicle 7.15625e-015 -1.11319e-014
rhumerus -35.1043 6.6879 -90.5823
rradius 42.6762
rwrist -22.9827
rhand -20.5405 5.2157
rfingers 7.12502
rthumb 5.81796 -24.6844
lclavicle 7.15625e-015 -1.11319e-014
lhumerus -29.3004 -9.14223 87.5715
lradius 52.7955
lwrist 15.9632
lhand -32.057 17.0332
lfingers 7.12502
lthumb -5.3038 46.9468
rfemur -21.6826 -4.47049 27.1883
rtibia 33.8833
rfoot -38.7359 -33.1238
rtoes 3.2268
lfemur -1.25689 3.76472 -13.7539
ltibia 29.1468
lfoot -33.6478 27.9924
ltoes 1.39529
254
root -9.64417 15.1503 6.65159 184.137 27.9536 -177.473
lowerback 7.45768 -0.062097 -6.59477
upperback 6.28812 0.111475 -1.47752
thorax 2.3795 0.0715465 2.16594
lowerneck -7.8761 -6.63524 -2.33586
upperneck 14.7928 -9.59669 7.72592
head 6.27918 -4.07712 2.07233
rclavicle 4.37326e-015 -2.70347e-014
rhumerus -34.8757 6.5336 -90.6062
rradius 41.9798
rwrist -23.2481
rhand -20.3125 4.46128
rfingers 7.12502
rthumb 6.03809 -25.4327
lclavicle 4.37326e-015 -2.70347e-014
lhumerus -29.7369 -9.52928 87.4662
lradius 53.3625
lwrist 15.8253
lhand -31.3509 15.5819
lfingers 7.12502
lthumb -4.62193 45.5115
rfemur -21.0628 -4.01321 27.2997
rtibia 33.2382
rfoot -37.8401 -33.2166
rtoes -1.37
lfemur -1.39776 5.2452 -13.6892
ltibia 30.8891
lfoot -32.9683 28.2678
ltoes 1.06716
255
root -9.50078 15.1337 6.61964 184.112 30.466 -177.479
lowerback 7.27436 0.109532 -6.24746
upperback 6.09003 0.319513 -1.43434
thorax 2.24836 0.176445 2.00616
lowerneck -8.2151 -6.21495 -1.8702
upperneck 15.2449 -8.99309 6.93754
head 6.38962 -3.79799 1.78979
rclavicle -9.54166e-015 7.95139e-015
rhumerus -34.4746 6.2031 -90.6301
rradius 40.9494
rwrist -23.4176
rhand -19.917 3.78296
rfingers 7.12502
rthumb 6.4199 -26.0997
lclavicle -9.54166e-015 7.95139e-015
lhumerus -30.2506 -9.73614 87.263
lradius 53.8071
lwrist 15.5085
lhand -30.7042 14.0336
lfingers 7.12502
lthumb -3.99752 43.9758
rfemur -20.16 -3.34286 27.825
rtibia 32.4545
rfoot -37.0505 -32.9302
rtoes -5.14235
lfemur -1.80958 6.83084 -13.15
ltibia 33.4259
lfoot -31.6827 28.5379
ltoes 1.27294
256
root -9.34884 15.1206 6.58939 184.178 33.1086 -177.125
lowerback 7.21593 0.348669 -5.67886
upperback 5.91831 0.622551 -1.32547
thorax 2.07048 0.336083 1.78496
lowerneck -8.52394 -5.78709 -1.36156
upperneck 15.6874 -8.37862 6.13268
head 6.4972 -3.51538 1.49667
rclavicle -3.93594e-014 1.59028e-014
rhumerus -33.8771 5.59469 -90.6108
rradius 39.5566
rwrist -23.3203
rhand -19.6717 2.88941
rfingers 7.12502
rthumb 6.65679 -26.986
lclavicle -3.93594e-014 1.59028e-014
lhumerus -30.8167 -9.69619 86.9614
lradius 54.055
lwrist 14.9154
lhand -30.178 12.3979
lfingers 7.12502
lthumb -3.48937 42.3491
rfemur -19.0215 -2.51071 28.702
rtibia 31.5418
rfoot -36.4185 -32.2982
rtoes -7.74256
lfemur -2.46627 8.34877 -12.1959
ltibia 36.6295
lfoot -29.6772 28.8611
ltoes 2.41695
257
root -9.19123 15.1087 6.56021 184.365 35.8206 -176.486
lowerback 7.2524 0.627523 -4.94992
upperback 5.76634 0.985353 -1.16806
thorax 1.86336 0.530185 1.51869
lowerneck -8.8046 -5.34613 -0.794657
upperneck 16.1148 -7.74306 5.27831
head 6.59885 -3.22633 1.18064
rclavicle 5.4467e-014 -2.8625e-014
rhumerus -33.098 4.59036 -90.4859
rradius 37.8323
rwrist -22.8139
rhand -19.1018 2.11065
rfingers 7.12502
rthumb 7.2069 -27.7466
lclavicle 5.4467e-014 -2.8625e-014
lhumerus -31.4094 -9.36931 86.5688
lradius 54.0361
lwrist 14.0221
lhand -29.7979 10.6807
lfingers 7.12502
lthumb -3.12231 40.6376
rfemur -17.7278 -1.49784 29.777
rtibia 30.5625
rfoot -36.0946 -31.3554
rtoes -9.22013
lfemur -3.32542 9.61686 -10.9788
ltibia 40.2766
lfoot -26.8553 29.1428
ltoes 4.15954
258
root -9.03197 15.0967 6.52907 184.566 38.5251 -175.851
lowerback 7.32396 0.920591 -4.24862
upperback 5.62997 1.37252 -1.02618
thorax 1.66131 0.736173 1.24768
lowerneck -9.07251 -4.88657 -0.136763
upperneck 16.5384 -7.07538 4.31848
head 6.69871 -2.92759 0.818756
rclavicle -7.07673e-014 6.04305e-014
rhumerus -32.139 3.04762 -90.1795
rradius 35.8046
rwrist -21.7724
rhand -18.2464 1.41465
rfingers 7.12502
rthumb 8.03251 -28.4127
lclavicle -7.07673e-014 6.04305e-014
lhumerus -31.992 -8.76872 86.1111
lradius 53.6934
lwrist 12.8688
lhand -29.503 8.87741
lfingers 7.12502
lthumb -2.83747 38.8383
rfemur -16.3854 -0.609949 30.769
rtibia 29.628
rfoot -35.6556 -30.2406
rtoes -10.493
lfemur -4.35132 10.4622 -9.8732
ltibia 44.1089
lfoot -23.3286 29.1148
ltoes 5.61671
259
root -8.87189 15.0847 6.49313 184.61 41.1805 -175.48
lowerback 7.41687 1.22916 -3.74076
upperback 5.50963 1.77884 -0.939669
thorax 1.47045 0.947976 1.02398
lowerneck -9.32874 -4.40504 0.678484
upperneck 16.9517 -6.36173 3.13812
head 6.79118 -2.61879 0.364337
rclavicle 4.13472e-014 7.95139e-016
rhumerus -31.0311 0.754939 -89.5977
rradius 33.5232
rwrist -20.0883
rhand -17.0852 0.935332
rfingers 7.12502
rthumb 9.15311 -28.846
lclavicle 4.13472e-014 7.95139e-016
lhumerus -32.5354 -7.96517 85.6409
lradius 52.9858
lwrist 11.5532
lhand -29.3028 7.19235
lfingers 7.12502
lthumb -2.64416 37.1557
rfemur -15.0246 0.0344112 31.4559
rtibia 28.8036
rfoot -35.0325 -29.1177
rtoes -12.531
lfemur -5.50047 10.8436 -9.17751
ltibia 47.9223
lfoot -19.2334 28.3926
ltoes 5.35358
260
root -8.71207 15.0725 6.45053 184.456 43.7598 -175.434
lowerback 7.48945 1.55113 -3.41736
upperback 5.4116 2.20135 -0.900572
thorax 1.31702 1.16384 0.85239
lowerneck -9.59509 -3.89352 1.70505
upperneck 17.3479 -5.58209 1.6336
head 6.87814 -2.29639 -0.224258
rclavicle -3.18055e-015 -9.54166e-015
rhumerus -29.8199 -2.48504 -88.6689
rradius 31.0925
rwrist -17.779
rhand -15.8373 0.68984
rfingers 7.12502
rthumb 10.3571 -29.0351
lclavicle -3.18055e-015 -9.54166e-015
lhumerus -32.9859 -7.03879 85.209
lradius 51.8893
lwrist 10.1995
lhand -29.1618 5.83787
lfingers 7.12502
lthumb -2.50796 35.8029
rfemur -13.6985 0.471468 31.8022
rtibia 28.1268
rfoot -34.2346 -28.152
rtoes -15.7129
lfemur -6.78941 10.7935 -8.99742
ltibia 51.5622
lfoot -15.2755 26.6878
ltoes 2.80439
261
root -8.55473 15.0589 6.40277 184.404 46.2739 -175.328
lowerback 7.53424 1.88858 -2.98971
upperback 5.31486 2.6516 -0.814356
thorax 1.18577 1.3942 0.66868
lowerneck -9.84641 -3.33633 2.93842
upperneck 17.6823 -4.703 -0.243755
head 6.94829 -1.95041 -0.959821
rclavicle -1.34577e-013 7.95139e-015
rhumerus -28.6077 -6.58534 -87.4204
rradius 28.6795
rwrist -15.2301
rhand -14.8752 0.701363
rfingers 7.12502
rthumb 11.2851 -28.9751
lclavicle -1.34577e-013 7.95139e-015
lhumerus -33.3198 -6.05734 84.8627
lradius 50.4063
lwrist 8.92102
lhand -29.017 4.99609
lfingers 7.12502
lthumb -2.36817 34.9627
rfemur -12.4522 0.926454 32.1305
rtibia 27.5452
rfoot -33.2771 -27.4354
rtoes -19.7202
lfemur -8.31828 10.4323 -9.04119
ltibia 54.9905
lfoot -12.2646 23.9878
ltoes -1.55373
262
root -8.39923 15.0445 6.34954 184.61 48.7463 -175.005
lowerback 7.51848 2.23226 -2.38883
upperback 5.21864 3.12117 -0.639454
thorax 1.09705 1.63507 0.479841
lowerneck -10.0248 -2.71375 4.30475
upperneck 17.8846 -3.69162 -2.43303
head 6.98427 -1.56467 -1.8086
rclavicle 1.47101e-014 5.56597e-015
rhumerus -27.4738 -11.2929 -85.9315
rradius 26.4542
rwrist -12.8531
rhand -14.5254 0.698169
rfingers 7.12502
rthumb 11.6225 -28.9595
lclavicle 1.47101e-014 5.56597e-015
lhumerus -33.538 -5.0438 84.6236
lradius 48.5734
lwrist 7.80264
lhand -28.7936 4.72604
lfingers 7.12502
lthumb -2.15237 34.6949
rfemur -11.286 1.49583 32.5523
rtibia 26.9977
rfoot -32.378 -26.8033
rtoes -23.5384
lfemur -10.1348 9.88744 -9.19429
ltibia 58.1694
lfoot -10.7798 20.6971
ltoes -5.95564
